<svg width="70" height="64" viewBox="0 0 70 64" fill="none" xmlns="http://www.w3.org/2000/svg">
<path d="M10.2743 0.100098H59.5799C62.3638 0.153943 65.0095 1.17392 66.9356 2.93591C68.8617 4.6979 69.9106 7.05777 69.8519 9.497V54.6032C69.9106 57.0424 68.8617 59.4023 66.9356 61.1643C65.0095 62.9263 62.3638 63.9463 59.5799 64.0001H10.2743C7.49042 63.9463 4.84477 62.9263 2.91869 61.1643C0.99261 59.4023 -0.056333 57.0424 0.00233494 54.6032V9.497C-0.056333 7.05777 0.99261 4.6979 2.91869 2.93591C4.84477 1.17392 7.49042 0.153943 10.2743 0.100098V0.100098Z" fill="#F4F5F6"/>
<path d="M47.7557 41.042H22.4014C22.2318 41.0377 22.063 41.0633 21.9049 41.1173C21.7469 41.1712 21.6027 41.2524 21.4811 41.356C21.3595 41.4595 21.2628 41.5835 21.1967 41.7204C21.1307 41.8573 21.0967 42.0044 21.0967 42.153C21.0967 42.3016 21.1307 42.4487 21.1967 42.5857C21.2628 42.7226 21.3595 42.8465 21.4811 42.9501C21.6027 43.0536 21.7469 43.1348 21.9049 43.1887C22.063 43.2427 22.2318 43.2683 22.4014 43.2641H47.7557C48.0858 43.2558 48.3992 43.1352 48.6294 42.9277C48.8595 42.7202 48.9882 42.4423 48.9882 42.153C48.9882 41.8637 48.8595 41.5858 48.6294 41.3783C48.3992 41.1709 48.0858 41.0502 47.7557 41.042Z" fill="#3422F2"/>
<path d="M23.9822 38.1537C23.6458 38.1537 23.3231 38.2708 23.0852 38.4792C22.8473 38.6877 22.7136 38.9704 22.7136 39.2652C22.7136 39.5599 22.8473 39.8427 23.0852 40.0511C23.3231 40.2596 23.6458 40.3767 23.9822 40.3767H46.1697C46.5062 40.3767 46.8289 40.2596 47.0668 40.0511C47.3047 39.8427 47.4383 39.5599 47.4383 39.2652C47.4383 38.9704 47.3047 38.6877 47.0668 38.4792C46.8289 38.2708 46.5062 38.1537 46.1697 38.1537H45.8534V28.1556H46.1697C46.255 28.1586 46.3402 28.1464 46.42 28.1199C46.4998 28.0934 46.5727 28.053 46.6343 28.0012C46.6959 27.9494 46.7449 27.8872 46.7783 27.8184C46.8118 27.7495 46.829 27.6755 46.829 27.6007C46.829 27.5259 46.8118 27.4519 46.7783 27.3831C46.7449 27.3142 46.6959 27.252 46.6343 27.2002C46.5727 27.1484 46.4998 27.108 46.42 27.0815C46.3402 27.055 46.255 27.0428 46.1697 27.0459H23.9822C23.8969 27.0428 23.8118 27.055 23.732 27.0815C23.6521 27.108 23.5792 27.1484 23.5177 27.2002C23.4561 27.252 23.4071 27.3142 23.3736 27.3831C23.3402 27.4519 23.3229 27.5259 23.3229 27.6007C23.3229 27.6755 23.3402 27.7495 23.3736 27.8184C23.4071 27.8872 23.4561 27.9494 23.5177 28.0012C23.5792 28.053 23.6521 28.0934 23.732 28.1199C23.8118 28.1464 23.8969 28.1586 23.9822 28.1556H24.2996V38.1528H23.9822V38.1537ZM43.3193 28.1556V38.1528H39.5186V28.1556H43.3193ZM36.9804 28.1556V38.1528H33.1798V28.1556H36.9804ZM26.8389 28.1556H30.6395V38.1528H26.8378L26.8389 28.1556Z" fill="#3422F2"/>
<path d="M22.4003 26.0469H47.7722C48.0707 26.0449 48.3589 25.9506 48.5859 25.7807C48.813 25.6108 48.9644 25.3762 49.0135 25.1182C49.0626 24.8602 49.0062 24.5952 48.8543 24.37C48.7024 24.1448 48.4647 23.9737 48.1831 23.8869L35.5999 18.9252C35.4362 18.8609 35.2589 18.8276 35.0796 18.8276C34.9002 18.8276 34.7229 18.8609 34.5593 18.9252L21.8806 23.9229C21.6157 24.027 21.3997 24.2075 21.2685 24.4343C21.1373 24.6611 21.0989 24.9205 21.1598 25.1692C21.2206 25.4178 21.377 25.6406 21.6028 25.8004C21.8286 25.9601 22.1101 26.0472 22.4003 26.0469Z" fill="#3422F2"/>
</svg>
