<svg width="30" height="30" viewBox="0 0 30 30" fill="none" xmlns="http://www.w3.org/2000/svg">
<path d="M14.65 29.1002C22.3543 29.1002 28.5999 22.8546 28.5999 15.1502C28.5999 7.44582 22.3543 1.2002 14.65 1.2002C6.94558 1.2002 0.699951 7.44582 0.699951 15.1502C0.699951 22.8546 6.94558 29.1002 14.65 29.1002Z" stroke="#3422F2" stroke-width="0.9"/>
<path d="M21.3993 11.4915C21.4025 11.2058 21.349 10.9223 21.2419 10.6573C21.1348 10.3924 20.9763 10.1512 20.7753 9.94773C20.3629 9.54064 19.8086 9.30864 19.2286 9.30031C18.9463 9.29912 18.6666 9.35351 18.4054 9.46038C18.1442 9.56726 17.9067 9.72451 17.7065 9.92313L20.7753 13.0106C20.979 12.8143 21.1396 12.5779 21.247 12.3164C21.3544 12.0549 21.4063 11.774 21.3993 11.4915Z" fill="#3422F2"/>
<path d="M20.0777 13.7088L17.0085 10.6455L9.89784 17.7427L12.967 20.806L20.0777 13.7088Z" fill="#3422F2"/>
<path d="M9.49885 18.7378L8.79993 21.9001L11.9683 21.2025L9.49885 18.7378Z" fill="#3422F2"/>
</svg>
