<svg width="24" height="25" viewBox="0 0 24 25" fill="none" xmlns="http://www.w3.org/2000/svg">
<path d="M13.26 3.87507C8.17003 3.73507 4.00003 7.82507 4.00003 12.8751H2.21003C1.76003 12.8751 1.54003 13.4151 1.86003 13.7251L4.65003 16.5251C4.85003 16.7251 5.16003 16.7251 5.36003 16.5251L8.15003 13.7251C8.21913 13.6546 8.26582 13.5652 8.28421 13.4682C8.30261 13.3712 8.29187 13.271 8.25338 13.1801C8.21488 13.0892 8.15033 13.0117 8.06788 12.9574C7.98542 12.9031 7.88874 12.8745 7.79003 12.8751H6.00003C6.00003 8.97507 9.18003 5.82507 13.1 5.87507C16.82 5.92507 19.95 9.05507 20 12.7751C20.05 16.6851 16.9 19.8751 13 19.8751C11.39 19.8751 9.90003 19.3251 8.72003 18.3951C8.52849 18.2442 8.28818 18.169 8.0448 18.1837C7.80141 18.1985 7.57194 18.3022 7.40003 18.4751C6.98003 18.8951 7.01003 19.6051 7.48003 19.9651C9.05123 21.2074 10.997 21.8807 13 21.8751C18.05 21.8751 22.14 17.7051 22 12.6151C21.87 7.92507 17.95 4.00507 13.26 3.87507ZM12.75 8.87507C12.34 8.87507 12 9.21507 12 9.62507V13.3051C12 13.6551 12.19 13.9851 12.49 14.1651L15.61 16.0151C15.97 16.2251 16.43 16.1051 16.64 15.7551C16.85 15.3951 16.73 14.9351 16.38 14.7251L13.5 13.0151V9.61507C13.5 9.21507 13.16 8.87507 12.75 8.87507Z" fill="url(#paint0_linear_1_2629)"/>
<defs>
<linearGradient id="paint0_linear_1_2629" x1="11.856" y1="3.87158" x2="11.856" y2="21.8751" gradientUnits="userSpaceOnUse">
<stop stop-color="#1D1AD8"/>
<stop offset="1" stop-color="#0F0E72"/>
</linearGradient>
</defs>
</svg>
