<svg width="24" height="25" viewBox="0 0 24 25" fill="none" xmlns="http://www.w3.org/2000/svg">
<path d="M12.707 2.66803L21.707 11.668C22.337 12.298 21.891 13.375 21 13.375H20V19.375C20 20.1707 19.684 20.9337 19.1214 21.4964C18.5588 22.059 17.7957 22.375 17 22.375H16V15.375C16.0001 14.6098 15.7077 13.8735 15.1828 13.3168C14.6578 12.76 13.9399 12.4249 13.176 12.38L13 12.375H11C10.2044 12.375 9.44133 12.6911 8.87872 13.2537C8.31611 13.8163 8.00004 14.5794 8.00004 15.375V22.375H7.00004C6.20439 22.375 5.44133 22.059 4.87872 21.4964C4.31611 20.9337 4.00004 20.1707 4.00004 19.375V13.375H3.00004C2.11004 13.375 1.66304 12.298 2.29304 11.668L11.293 2.66803C11.4806 2.48056 11.7349 2.37524 12 2.37524C12.2652 2.37524 12.5195 2.48056 12.707 2.66803ZM13 14.375C13.2653 14.375 13.5196 14.4804 13.7071 14.6679C13.8947 14.8555 14 15.1098 14 15.375V22.375H10V15.375C10.0001 15.1301 10.09 14.8937 10.2528 14.7107C10.4155 14.5276 10.6398 14.4107 10.883 14.382L11 14.375H13Z" fill="url(#paint0_linear_1_2625)"/>
<defs>
<linearGradient id="paint0_linear_1_2625" x1="12.0001" y1="2.37524" x2="12.0001" y2="22.375" gradientUnits="userSpaceOnUse">
<stop stop-color="#1D1AD8"/>
<stop offset="1" stop-color="#0F0E72"/>
</linearGradient>
</defs>
</svg>
