<svg width="24" height="24" viewBox="0 0 24 24" fill="none" xmlns="http://www.w3.org/2000/svg">
<path d="M4.252 20C3.55867 20 2.96833 19.7567 2.481 19.27C1.99367 18.7847 1.75 18.1947 1.75 17.5C1.75 16.9013 1.94067 16.3727 2.322 15.914C2.70333 15.4553 3.17933 15.1707 3.75 15.06V8.94C3.17933 8.83 2.70333 8.54567 2.322 8.087C1.94067 7.62767 1.75 7.09867 1.75 6.5C1.75 5.80533 1.993 5.21533 2.479 4.73C2.96433 4.24333 3.554 4 4.248 4C4.942 4 5.53233 4.24333 6.019 4.73C6.50567 5.21667 6.74933 5.80667 6.75 6.5C6.75 7.09867 6.55933 7.62767 6.178 8.087C5.79667 8.54567 5.32067 8.83033 4.75 8.941V11.5H11.5V8.94C10.9293 8.83 10.4533 8.54567 10.072 8.087C9.69067 7.62767 9.5 7.09867 9.5 6.5C9.5 5.80533 9.743 5.21533 10.229 4.73C10.7143 4.24333 11.304 4 11.998 4C12.692 4 13.2823 4.24333 13.769 4.73C14.2557 5.21667 14.4993 5.80667 14.5 6.5C14.5 7.09867 14.3093 7.62767 13.928 8.087C13.5467 8.54567 13.0707 8.83033 12.5 8.941V11.5H17.77C18.1813 11.5 18.534 11.353 18.828 11.059C19.122 10.7643 19.269 10.4113 19.269 10V8.94C18.699 8.83 18.223 8.54567 17.841 8.087C17.4597 7.62767 17.269 7.09867 17.269 6.5C17.269 5.80533 17.512 5.21533 17.998 4.73C18.4833 4.24333 19.073 4 19.767 4C20.461 4 21.0517 4.24333 21.539 4.73C22.0263 5.21667 22.2697 5.80667 22.269 6.5C22.269 7.09867 22.0783 7.62767 21.697 8.087C21.3157 8.54567 20.8397 8.83033 20.269 8.941V10C20.269 10.6947 20.026 11.2847 19.54 11.77C19.054 12.2567 18.464 12.5 17.77 12.5H12.5V15.06C13.0707 15.17 13.5467 15.4543 13.928 15.913C14.3093 16.3723 14.5 16.9013 14.5 17.5C14.5 18.1947 14.2573 18.7847 13.772 19.27C13.286 19.7567 12.696 20 12.002 20C11.308 20 10.7177 19.7567 10.231 19.27C9.74433 18.7833 9.50067 18.1933 9.5 17.5C9.5 16.9013 9.69067 16.3727 10.072 15.914C10.4533 15.4553 10.9293 15.1707 11.5 15.06V12.5H4.75V15.06C5.32067 15.17 5.79667 15.4543 6.178 15.913C6.55933 16.3723 6.75 16.9013 6.75 17.5C6.75 18.1947 6.50733 18.7847 6.022 19.27C5.536 19.7567 4.946 20 4.252 20ZM4.25 19C4.66133 19 5.01433 18.853 5.309 18.559C5.603 18.2643 5.75 17.9113 5.75 17.5C5.75 17.0887 5.603 16.7357 5.309 16.441C5.01433 16.147 4.66133 16 4.25 16C3.83867 16 3.48567 16.147 3.191 16.441C2.897 16.7357 2.75 17.0887 2.75 17.5C2.75 17.9113 2.897 18.2643 3.191 18.559C3.48567 18.853 3.83867 19 4.25 19ZM4.25 8C4.66133 8 5.01433 7.853 5.309 7.559C5.603 7.26433 5.75 6.91133 5.75 6.5C5.75 6.08867 5.603 5.73567 5.309 5.441C5.01433 5.147 4.66133 5 4.25 5C3.83867 5 3.48567 5.147 3.191 5.441C2.897 5.73567 2.75 6.08867 2.75 6.5C2.75 6.91133 2.897 7.26433 3.191 7.559C3.48567 7.853 3.83867 8 4.25 8ZM12 19C12.4113 19 12.7643 18.853 13.059 18.559C13.353 18.2643 13.5 17.9113 13.5 17.5C13.5 17.0887 13.353 16.7357 13.059 16.441C12.765 16.1463 12.412 15.9993 12 16C11.588 16.0007 11.235 16.1477 10.941 16.441C10.647 16.7343 10.5 17.0873 10.5 17.5C10.5 17.9127 10.647 18.2657 10.941 18.559C11.2357 18.853 11.5887 19 12 19ZM12 8C12.4113 8 12.7643 7.853 13.059 7.559C13.353 7.26433 13.5 6.91133 13.5 6.5C13.5 6.08867 13.353 5.73567 13.059 5.441C12.7643 5.147 12.4113 5 12 5C11.5887 5 11.2357 5.147 10.941 5.441C10.6463 5.735 10.4993 6.088 10.5 6.5C10.5007 6.912 10.6477 7.265 10.941 7.559C11.2357 7.853 11.5887 8 12 8ZM19.77 8C20.1813 8 20.534 7.853 20.828 7.559C21.122 7.26433 21.269 6.91133 21.269 6.5C21.269 6.08867 21.122 5.73567 20.828 5.441C20.534 5.147 20.181 5 19.769 5C19.357 5 19.0043 5.147 18.711 5.441C18.4163 5.73567 18.269 6.08867 18.269 6.5C18.269 6.91133 18.4163 7.26433 18.711 7.559C19.005 7.853 19.3577 8 19.769 8" fill="url(#paint0_linear_1_2639)"/>
<defs>
<linearGradient id="paint0_linear_1_2639" x1="12.0095" y1="4" x2="12.0095" y2="20" gradientUnits="userSpaceOnUse">
<stop stop-color="#1D1AD8"/>
<stop offset="1" stop-color="#0F0E72"/>
</linearGradient>
</defs>
</svg>
