<svg width="14" height="14" viewBox="0 0 14 14" fill="none" xmlns="http://www.w3.org/2000/svg">
<path d="M9.92818 13.3809C9.51867 13.3801 9.11248 13.3073 8.72806 13.1658C6.98186 12.5258 5.39582 11.5123 4.08028 10.1958C2.76626 8.87781 1.75467 7.28875 1.11591 5.53924C0.914174 4.99327 0.852401 4.40532 0.936246 3.82924C1.01887 3.2813 1.22773 2.76017 1.54628 2.30714C1.86482 1.85411 2.2843 1.48164 2.77146 1.21924C3.28558 0.941579 3.86094 0.797389 4.44499 0.799835C4.53471 0.799878 4.62172 0.830715 4.69151 0.887211C4.7613 0.943708 4.80967 1.02245 4.82856 1.11034L5.44479 3.99034C5.45846 4.05444 5.45593 4.12095 5.43742 4.18382C5.41891 4.24669 5.385 4.30393 5.33879 4.35034L4.28599 5.40514C5.28231 7.38775 6.88843 8.99692 8.86729 9.99514L9.92009 8.94034C9.96641 8.89404 10.0235 8.86007 10.0863 8.84152C10.149 8.82297 10.2154 8.82044 10.2794 8.83414L13.154 9.45154C13.2417 9.47046 13.3203 9.51892 13.3767 9.58885C13.433 9.65877 13.4638 9.74594 13.4639 9.83584C13.4665 10.4213 13.3225 10.9981 13.0453 11.5134C12.7828 12.0007 12.4108 12.4201 11.9587 12.7384C11.5066 13.0568 10.9867 13.2653 10.4402 13.3476C10.2724 13.3723 10.1031 13.3846 9.93357 13.3845L9.92818 13.3809ZM4.13148 1.60354C3.71936 1.65057 3.3232 1.79042 2.97267 2.01259C2.62214 2.23477 2.32632 2.53352 2.10736 2.88647C1.8884 3.23942 1.75198 3.63744 1.70831 4.0507C1.66465 4.46396 1.71486 4.88177 1.8552 5.27284C2.44912 6.91688 3.39663 8.40995 4.63061 9.64626C5.86458 10.8826 7.35482 11.8319 8.99575 12.4269C9.38607 12.5675 9.80309 12.6179 10.2156 12.5741C10.628 12.5304 11.0253 12.3937 11.3776 12.1743C11.7299 11.9549 12.0281 11.6585 12.2498 11.3073C12.4716 10.9561 12.6111 10.5592 12.6581 10.1463L10.3225 9.64414L9.22122 10.7457C9.16405 10.8029 9.09068 10.841 9.0111 10.8549C8.93153 10.8687 8.84963 10.8576 8.77657 10.8231C6.43821 9.72029 4.55672 7.83523 3.45596 5.49244C3.42153 5.41924 3.41048 5.33718 3.4243 5.25745C3.43813 5.17772 3.47616 5.10421 3.53322 5.04694L4.63273 3.94984L4.13148 1.60354Z" fill="#3422F2"/>
</svg>
