<svg width="24" height="24" viewBox="0 0 24 24" fill="none" xmlns="http://www.w3.org/2000/svg">
<path d="M19.036 20.3244L15.2175 16.5048C14.8663 16.1536 14.8663 15.5841 15.2176 15.2328C15.5689 14.8815 16.1385 14.8815 16.4898 15.2329L20.3083 19.0525C20.6595 19.4038 20.6595 19.9732 20.3082 20.3245C19.9569 20.6758 19.3873 20.6758 19.036 20.3244Z" fill="#C2CCDE" fill-opacity="0.25"/>
<path d="M4.67902 8.72044C5.20754 6.74797 6.74821 5.2073 8.72068 4.67878C10.6931 4.15026 12.7977 4.71418 14.2417 6.15813C15.6856 7.60207 16.2496 9.70667 15.721 11.6791C15.1925 13.6516 13.6518 15.1923 11.6794 15.7208C9.70691 16.2493 7.60232 15.6854 6.15837 14.2414C4.71443 12.7975 4.1505 10.6929 4.67902 8.72044Z" fill="#C2CCDE" fill-opacity="0.25"/>
<path d="M14.2335 14.2493L15.2173 15.2331M15.2175 16.5048L19.036 20.3244C19.3873 20.6758 19.9569 20.6758 20.3082 20.3245C20.6595 19.9732 20.6595 19.4038 20.3083 19.0525L16.4898 15.2329C16.1385 14.8815 15.5689 14.8815 15.2176 15.2328C14.8663 15.5841 14.8663 16.1536 15.2175 16.5048ZM6.15837 14.2414C4.71443 12.7975 4.1505 10.6929 4.67902 8.72044C5.20754 6.74797 6.74821 5.2073 8.72068 4.67878C10.6931 4.15026 12.7977 4.71418 14.2417 6.15813C15.6856 7.60207 16.2496 9.70667 15.721 11.6791C15.1925 13.6516 13.6518 15.1923 11.6794 15.7208C9.70691 16.2493 7.60232 15.6854 6.15837 14.2414Z" stroke="#414141" stroke-linecap="round" stroke-linejoin="round"/>
</svg>
